<svg width="99" height="35" viewBox="0 0 99 35" fill="none" xmlns="http://www.w3.org/2000/svg">
<path d="M6.86574 3.705H0.285741V0.274999H17.4007V3.705H10.7507V26H6.86574V3.705ZM25.932 26.35C24.4853 26.35 23.1437 26.0117 21.907 25.335C20.6937 24.635 19.7137 23.655 18.967 22.395C18.2437 21.1117 17.882 19.6183 17.882 17.915C17.882 16.235 18.197 14.765 18.827 13.505C19.4803 12.245 20.402 11.265 21.592 10.565C22.782 9.865 24.182 9.515 25.792 9.515C26.7253 9.515 27.6003 9.67833 28.417 10.005C29.2337 10.3317 29.922 10.74 30.482 11.23C31.042 11.6967 31.4153 12.1633 31.602 12.63L31.672 9.935H35.277V26H31.707L31.637 23.165C31.2403 24.005 30.517 24.7517 29.467 25.405C28.417 26.035 27.2387 26.35 25.932 26.35ZM26.562 23.2C27.892 23.2 29.012 22.745 29.922 21.835C30.832 20.9017 31.287 19.6883 31.287 18.195V17.95C31.287 16.9467 31.077 16.0483 30.657 15.255C30.237 14.4617 29.6653 13.8433 28.942 13.4C28.2187 12.9567 27.4253 12.735 26.562 12.735C25.0687 12.735 23.9137 13.225 23.097 14.205C22.2803 15.1617 21.872 16.41 21.872 17.95C21.872 19.5133 22.2687 20.785 23.062 21.765C23.8787 22.7217 25.0453 23.2 26.562 23.2ZM41.0602 9.935H44.7702L44.8052 12.875C45.2485 11.895 45.9485 11.09 46.9052 10.46C47.8619 9.83 48.9819 9.515 50.2652 9.515C51.9219 9.515 53.1935 9.865 54.0802 10.565C54.9669 11.2417 55.5619 12.1983 55.8652 13.435C56.1685 14.6717 56.3202 16.2817 56.3202 18.265V26H52.5402V18.37C52.5402 16.34 52.3419 14.8817 51.9452 13.995C51.5485 13.085 50.7319 12.63 49.4952 12.63C48.7952 12.63 48.0835 12.8517 47.3602 13.295C46.6369 13.715 46.0302 14.3333 45.5402 15.15C45.0735 15.9667 44.8402 16.9233 44.8402 18.02V26H41.0602V9.935ZM69.697 34.4C68.507 34.4 67.3287 34.2367 66.162 33.91C65.0187 33.5833 64.202 33.28 63.712 33L64.552 29.5C66.092 30.5033 67.772 31.005 69.592 31.005C70.992 31.005 72.1704 30.6667 73.127 29.99C74.0837 29.3133 74.5737 27.995 74.597 26.035V23.165C74.107 24.075 73.3137 24.8333 72.217 25.44C71.1204 26.0467 69.907 26.35 68.577 26.35C67.177 26.35 65.8937 26.0117 64.727 25.335C63.5604 24.635 62.6387 23.6433 61.962 22.36C61.2854 21.0767 60.947 19.5833 60.947 17.88C60.947 16.2467 61.262 14.8 61.892 13.54C62.5454 12.2567 63.467 11.265 64.657 10.565C65.847 9.865 67.2354 9.515 68.822 9.515C69.7554 9.515 70.6304 9.67833 71.447 10.005C72.2637 10.3317 72.952 10.74 73.512 11.23C74.0954 11.6967 74.4804 12.1633 74.667 12.63L74.737 9.935H78.307V25.895C78.307 28.625 77.607 30.725 76.207 32.195C74.807 33.665 72.637 34.4 69.697 34.4ZM69.627 23.165C70.957 23.165 72.077 22.71 72.987 21.8C73.897 20.8667 74.352 19.6533 74.352 18.16V17.915C74.352 16.9117 74.142 16.0133 73.722 15.22C73.302 14.4267 72.7304 13.8083 72.007 13.365C71.2837 12.9217 70.4904 12.7 69.627 12.7C68.1337 12.7 66.9787 13.19 66.162 14.17C65.3454 15.1267 64.937 16.375 64.937 17.915C64.937 19.4783 65.3337 20.75 66.127 21.73C66.9437 22.6867 68.1104 23.165 69.627 23.165ZM88.4718 26.49L81.8218 9.935H86.0918L89.5218 20.155L90.2918 22.64L91.0618 20.155L94.6668 9.935H98.7968L88.9268 34.82H85.0068L88.4718 26.49Z" fill="black"/>
</svg>
